<svg data-v-0dd9719b="" version="1.0"
  xmlns="http://www.w3.org/2000/svg"
  xmlns:xlink="http://www.w3.org/1999/xlink" width="100%" height="100%" viewBox="0 0 340.000000 250.000000" preserveAspectRatio="xMidYMid meet" color-interpolation-filters="sRGB" style="margin: auto;">
  <rect data-v-0dd9719b="" x="0" y="0" width="100%" height="100%" fill="#173f49" fill-opacity="1" class="background"></rect>
  <rect data-v-0dd9719b="" x="0" y="0" width="100%" height="100%" fill="url(#watermark)" fill-opacity="1" class="watermarklayer"></rect>
  <g data-v-0dd9719b="" fill="#d9ead3" class="icon-text-wrapper icon-svg-group iconsvg" transform="translate(119.93560028076172,52.86106717772782)">
    <g fill="#aecbc9" class="iconsvg-imagesvg icon_container" transform="translate(4.060489654541016,0)">
      <rect fill="#d9ead3" fill-opacity="0" stroke-width="2" x="0" y="0" width="92" height="92" class="image-rect"></rect>
      <svg viewBox="0 0 60 60" x="0" y="0" width="92" height="92" class="image-svg-svg bn" style="overflow: visible;">
        <g hollow-target="iconBnFill" mask="url(#49df32a9-aaa1-4f19-bb69-d6c174c96665)">
          <g>
            <svg xmlns="http://www.w3.org/2000/svg"
              xmlns:xlink="http://www.w3.org/1999/xlink" version="1.1" x="0" y="0" viewBox="5 5 90 90" enable-background="new 0 0 100 100" xml:space="preserve" style="overflow: visible;" width="60" height="60" filtersec="colorsf2798166748" filter="url(#cCGwasSeF0X_qUbgJERwV)">
              <g transform="scale(1, 1) skewX(0)">
                <path d="M75.921,5H24.305C13.752,5,5,13.752,5,24.305v51.616C5,86.472,13.752,95,24.305,95h51.616C86.472,95,95,86.472,95,75.921  V24.305C95,13.752,86.472,5,75.921,5z"></path>
              </g>
              <defs>
                <filter id="cCGwasSeF0X_qUbgJERwV">
                  <feColorMatrix type="matrix" values="0 0 0 0 0.6796875  0 0 0 0 0.79296875  0 0 0 0 0.78515625  0 0 0 1 0"></feColorMatrix>
                </filter>
              </defs>
            </svg>
          </g>
          <g filter="url(#colors822380508)">
            <svg xmlns="http://www.w3.org/2000/svg"
              xmlns:xlink="http://www.w3.org/1999/xlink" viewBox="0 0 66.234375 66.234375" width="60" height="60" x="0" y="0" class="image-svg-letter">
              <path transform="translate(-2.8828125 60.46875)" d="M52.03-29.74L52.03-29.74L52.03 2.25Q52.03 5.55 49.08 5.55L49.08 5.55Q46.05 5.55 46.05 2.25L46.05 2.25L46.05-29.53Q43.03-19.97 38.18-12.69Q33.33-5.41 31.01-5.41L31.01-5.41Q28.13-5.41 28.13-8.58L28.13-8.58Q28.13-9.84 29.53-11.32L29.53-11.32Q34.80-16.73 39.13-25.07Q43.45-33.40 44.86-40.01L44.86-40.01L36.14-40.01Q32.55-40.01 32.55-42.82L32.55-42.82Q32.55-45.70 36.14-45.70L36.14-45.70L46.05-45.70L46.05-57.16Q46.05-60.47 49.01-60.47L49.01-60.47Q52.03-60.47 52.03-57.16L52.03-57.16L52.03-45.70L64.69-45.70Q68.13-45.70 68.13-42.82L68.13-42.82Q68.13-40.01 64.69-40.01L64.69-40.01L52.80-40.01Q56.60-24.40 67.43-13.29L67.43-13.29Q69.12-11.53 69.12-10.13L69.12-10.13Q69.12-6.40 66.09-6.40L66.09-6.40Q63.70-6.40 59.17-13.89Q54.63-21.38 52.03-29.74ZM15.40 2.53L15.40-28.69Q13.71-22.85 10.62-16.88Q7.52-10.90 5.63-10.90L5.63-10.90Q2.88-10.90 2.88-14.20L2.88-14.20Q2.88-15.26 4.01-16.80L4.01-16.80Q11.60-26.72 14.63-40.01L14.63-40.01L7.24-40.01Q3.73-40.01 3.73-42.82L3.73-42.82Q3.73-45.70 7.24-45.70L7.24-45.70L15.40-45.70L15.40-57.23Q15.40-60.47 18.35-60.47Q21.30-60.47 21.30-57.23L21.30-57.23L21.30-45.70L27.35-45.70Q30.87-45.70 30.87-42.82L30.87-42.82Q30.87-40.01 27.35-40.01L27.35-40.01L21.30-40.01L21.30-30.94Q22.01-31.78 23.06-31.78L23.06-31.78Q24.26-31.78 28.09-27.11Q31.92-22.43 31.92-21.09L31.92-21.09Q31.92-18.42 29.25-18.42L29.25-18.42Q27.84-18.42 26.72-20.32L26.72-20.32Q24.75-23.70 21.59-27.98L21.59-27.98L21.30-28.41L21.30 2.53Q21.30 5.77 18.35 5.77Q15.40 5.77 15.40 2.53L15.40 2.53Z"></path>
            </svg>
          </g>
        </g>
        <mask id="49df32a9-aaa1-4f19-bb69-d6c174c96665">
          <g fill="white">
            <svg xmlns="http://www.w3.org/2000/svg"
              xmlns:xlink="http://www.w3.org/1999/xlink" version="1.1" x="0" y="0" viewBox="5 5 90 90" enable-background="new 0 0 100 100" xml:space="preserve" style="overflow: visible;" width="60" height="60" filtersec="colorsf2798166748">
              <g transform="scale(1, 1) skewX(0)">
                <path d="M75.921,5H24.305C13.752,5,5,13.752,5,24.305v51.616C5,86.472,13.752,95,24.305,95h51.616C86.472,95,95,86.472,95,75.921  V24.305C95,13.752,86.472,5,75.921,5z"></path>
              </g>
              <defs></defs>
            </svg>
          </g>
          <g fill="black">
            <svg xmlns="http://www.w3.org/2000/svg"
              xmlns:xlink="http://www.w3.org/1999/xlink" viewBox="0 0 66.234375 66.234375" width="60" height="60" x="0" y="0" class="image-svg-letter">
              <path transform="translate(-2.8828125 60.46875)" d="M52.03-29.74L52.03-29.74L52.03 2.25Q52.03 5.55 49.08 5.55L49.08 5.55Q46.05 5.55 46.05 2.25L46.05 2.25L46.05-29.53Q43.03-19.97 38.18-12.69Q33.33-5.41 31.01-5.41L31.01-5.41Q28.13-5.41 28.13-8.58L28.13-8.58Q28.13-9.84 29.53-11.32L29.53-11.32Q34.80-16.73 39.13-25.07Q43.45-33.40 44.86-40.01L44.86-40.01L36.14-40.01Q32.55-40.01 32.55-42.82L32.55-42.82Q32.55-45.70 36.14-45.70L36.14-45.70L46.05-45.70L46.05-57.16Q46.05-60.47 49.01-60.47L49.01-60.47Q52.03-60.47 52.03-57.16L52.03-57.16L52.03-45.70L64.69-45.70Q68.13-45.70 68.13-42.82L68.13-42.82Q68.13-40.01 64.69-40.01L64.69-40.01L52.80-40.01Q56.60-24.40 67.43-13.29L67.43-13.29Q69.12-11.53 69.12-10.13L69.12-10.13Q69.12-6.40 66.09-6.40L66.09-6.40Q63.70-6.40 59.17-13.89Q54.63-21.38 52.03-29.74ZM15.40 2.53L15.40-28.69Q13.71-22.85 10.62-16.88Q7.52-10.90 5.63-10.90L5.63-10.90Q2.88-10.90 2.88-14.20L2.88-14.20Q2.88-15.26 4.01-16.80L4.01-16.80Q11.60-26.72 14.63-40.01L14.63-40.01L7.24-40.01Q3.73-40.01 3.73-42.82L3.73-42.82Q3.73-45.70 7.24-45.70L7.24-45.70L15.40-45.70L15.40-57.23Q15.40-60.47 18.35-60.47Q21.30-60.47 21.30-57.23L21.30-57.23L21.30-45.70L27.35-45.70Q30.87-45.70 30.87-42.82L30.87-42.82Q30.87-40.01 27.35-40.01L27.35-40.01L21.30-40.01L21.30-30.94Q22.01-31.78 23.06-31.78L23.06-31.78Q24.26-31.78 28.09-27.11Q31.92-22.43 31.92-21.09L31.92-21.09Q31.92-18.42 29.25-18.42L29.25-18.42Q27.84-18.42 26.72-20.32L26.72-20.32Q24.75-23.70 21.59-27.98L21.59-27.98L21.30-28.41L21.30 2.53Q21.30 5.77 18.35 5.77Q15.40 5.77 15.40 2.53L15.40 2.53Z"></path>
            </svg>
          </g>
        </mask>
      </svg>
      <defs>
        <filter id="colors822380508">
          <feColorMatrix type="matrix" values="0 0 0 0 0.84765625  0 0 0 0 0.9140625  0 0 0 0 0.82421875  0 0 0 1 0" class="icon-fecolormatrix"></feColorMatrix>
        </filter>
        <filter id="colorsf2798166748">
          <feColorMatrix type="matrix" values="0 0 0 0 0.99609375  0 0 0 0 0.99609375  0 0 0 0 0.99609375  0 0 0 1 0" class="icon-fecolormatrix"></feColorMatrix>
        </filter>
        <filter id="colorsb2165587422">
          <feColorMatrix type="matrix" values="0 0 0 0 0  0 0 0 0 0  0 0 0 0 0  0 0 0 1 0" class="icon-fecolormatrix"></feColorMatrix>
        </filter>
      </defs>
    </g>
    <g transform="translate(0,99.00782012939453)">
      <g data-gra="path-name" fill-rule="" class="tp-name iconsvg-namesvg" transform="translate(0,0)">
        <g transform="scale(0.94)">
          <g>
            <path d="M26.74-15.28L26.74-15.28 26.74 1.16Q26.74 2.85 25.22 2.85L25.22 2.85Q23.67 2.85 23.67 1.16L23.67 1.16 23.67-15.18Q22.11-10.26 19.62-6.52 17.13-2.78 15.93-2.78L15.93-2.78Q14.45-2.78 14.45-4.41L14.45-4.41Q14.45-5.06 15.18-5.82L15.18-5.82Q17.89-8.6 20.11-12.88 22.33-17.16 23.05-20.56L23.05-20.56 18.57-20.56Q16.73-20.56 16.73-22L16.73-22Q16.73-23.49 18.57-23.49L18.57-23.49 23.67-23.49 23.67-29.38Q23.67-31.07 25.18-31.07L25.18-31.07Q26.74-31.07 26.74-29.38L26.74-29.38 26.74-23.49 33.24-23.49Q35.01-23.49 35.01-22L35.01-22Q35.01-20.56 33.24-20.56L33.24-20.56 27.14-20.56Q29.09-12.54 34.65-6.83L34.65-6.83Q35.52-5.93 35.52-5.2L35.52-5.2Q35.52-3.29 33.96-3.29L33.96-3.29Q32.74-3.29 30.41-7.14 28.08-10.98 26.74-15.28ZM7.91 1.3L7.91-14.74Q7.05-11.74 5.46-8.67 3.87-5.6 2.89-5.6L2.89-5.6Q1.48-5.6 1.48-7.3L1.48-7.3Q1.48-7.84 2.06-8.64L2.06-8.64Q5.96-13.73 7.52-20.56L7.52-20.56 3.72-20.56Q1.92-20.56 1.92-22L1.92-22Q1.92-23.49 3.72-23.49L3.72-23.49 7.91-23.49 7.91-29.41Q7.91-31.07 9.43-31.07 10.95-31.07 10.95-29.41L10.95-29.41 10.95-23.49 14.06-23.49Q15.86-23.49 15.86-22L15.86-22Q15.86-20.56 14.06-20.56L14.06-20.56 10.95-20.56 10.95-15.9Q11.31-16.33 11.85-16.33L11.85-16.33Q12.47-16.33 14.44-13.93 16.4-11.53 16.4-10.84L16.4-10.84Q16.4-9.47 15.03-9.47L15.03-9.47Q14.31-9.47 13.73-10.44L13.73-10.44Q12.72-12.18 11.09-14.38L11.09-14.38 10.95-14.6 10.95 1.3Q10.95 2.96 9.43 2.96 7.91 2.96 7.91 1.3L7.91 1.3ZM70.75-3.36L56.62-3.36 56.62-0.72Q56.84 3.22 53.01 2.96L53.01 2.96 50.73 2.96Q48.92 2.96 48.92 1.52 48.92 0.07 50.73 0.07L50.73 0.07 52.25 0.07Q53.62 0.04 53.66-1.34L53.66-1.34 53.66-3.36 40.29-3.36Q38.73-3.36 38.73-4.63 38.73-5.89 40.29-5.89L40.29-5.89 53.66-5.89 53.66-6.87Q53.69-7.73 54.27-8.13 54.85-8.53 57.31-9.07L57.31-9.07 61.17-10.08 44.66-10.08Q43.21-10.08 43.21-11.24L43.21-11.24Q43.21-12.43 44.66-12.43L44.66-12.43 64.64-12.43Q67.57-12.43 67.57-11.13L67.57-11.13Q67.57-9.94 57.78-7.3L57.78-7.3Q56.62-6.94 56.62-6.25L56.62-6.25 56.62-5.89 70.75-5.89Q72.3-5.89 72.3-4.63 72.3-3.36 70.75-3.36L70.75-3.36ZM57.23-27.53L57.23-27.53 57.67-27.24Q59.22-26.09 59.22-25.44L59.22-25.44Q59.22-24.32 58.17-24.32L58.17-24.32Q57.7-24.32 56.95-25L56.95-25 55.57-26.23Q52.72-24.03 51.89-24.03L51.89-24.03Q50.84-24.03 50.84-25.08L50.84-25.08Q50.84-25.65 53.08-26.96L53.08-26.96 53.91-27.46Q51.53-29.05 51.53-29.56L51.53-29.56Q51.53-30.5 52.57-30.5L52.57-30.5Q53.04-30.5 55.54-28.76L55.54-28.76 56.66-29.88Q57.45-30.71 58.03-30.71L58.03-30.71Q59.11-30.71 59.11-29.77L59.11-29.77Q59.11-29.12 57.23-27.53ZM44.73-19.15L44.88-16.8 66.23-16.8 66.41-19.15 61.68-19.15Q60.49-19.15 60.49-20.2 60.49-21.25 61.68-21.25L61.68-21.25 66.56-21.25 66.74-23.52 61.68-23.52Q60.49-23.52 60.49-24.57 60.49-25.62 61.68-25.62L61.68-25.62 66.92-25.62 66.99-26.52 66.99-26.59Q67.24-27.64 65.94-27.64L65.94-27.64 61.43-27.64Q60.23-27.64 60.23-28.73L60.23-28.73Q60.23-29.88 61.43-29.88L61.43-29.88 66.74-29.88Q69.63-29.88 69.63-27.64L69.63-27.64 68.83-16.8 69.27-16.8Q72.01-16.77 71.8-13.77L71.8-13.77 71.8-10.77Q71.8-8.96 70.28-8.96L70.28-8.96Q68.72-8.96 68.72-10.77L68.72-10.77 68.72-13.37Q68.72-14.53 67.53-14.56L67.53-14.56 43.5-14.56Q42.31-14.53 42.28-13.37L42.28-13.37 42.28-10.88Q42.28-9.07 40.76-9.07L40.76-9.07Q39.2-9.07 39.2-10.91L39.2-10.91 39.2-13.77Q39.02-16.77 41.77-16.8L41.77-16.8 42.28-16.8 41.52-27.46Q41.52-29.38 43.36-29.85L43.36-29.85 47.19-30.46 48.38-30.75Q48.92-30.93 49.29-30.93L49.29-30.93Q50.44-30.93 50.44-29.63 50.44-28.33 45.89-27.97L45.89-27.97Q44.15-27.82 44.15-26.85L44.15-26.85 44.19-26.77 44.26-25.62 49.14-25.62Q50.37-25.62 50.37-24.57 50.37-23.52 49.14-23.52L49.14-23.52 44.41-23.52 44.59-21.25 49.14-21.25Q50.37-21.25 50.37-20.2 50.37-19.15 49.14-19.15L49.14-19.15 44.73-19.15ZM55.14-22.22L55.79-21.82 56.8-22.8Q57.6-23.59 58.14-23.59L58.14-23.59Q59.26-23.59 59.26-22.66L59.26-22.66Q59.26-21.97 57.49-20.63L57.49-20.63Q59.73-19.08 59.73-18.39L59.73-18.39Q59.73-17.27 58.64-17.27L58.64-17.27Q58.17-17.27 57.42-17.99L57.42-17.99 55.79-19.33Q52.79-17.13 52-17.13L52-17.13Q50.98-17.13 50.98-18.14L50.98-18.14Q50.98-18.75 53.3-20.02L53.3-20.02 54.09-20.52 53.66-20.81Q51.74-22.04 51.74-22.51L51.74-22.51Q51.74-23.45 52.79-23.45L52.79-23.45Q53.19-23.45 53.98-22.91L53.98-22.91 55.14-22.22ZM105.04 1.26L105.04-8.42 101.89-8.42Q100.77-8.42 100.74-7.3L100.74-7.3 100.74 0.51Q100.74 1.95 99.4 1.95 98.06 1.95 98.06 0.51L98.06 0.51 98.06-8.06Q98.06-10.95 100.99-10.95L100.99-10.95 105.04-10.95 105.04-14.27 88.49-14.27 88.34-10.95 92.1-10.95Q95.03-10.95 95.03-8.06L95.03-8.06 95.03 0.51Q95.03 1.99 93.69 1.99 92.36 1.99 92.36 0.51L92.36 0.51 92.36-7.3Q92.32-8.42 91.2-8.42L91.2-8.42 88.2-8.42Q87.69-3.5 86.25-0.43 84.8 2.64 83.25 2.64 81.7 2.64 81.7 1.08L81.7 1.08Q81.7 0.51 82.31-0.25L82.31-0.25Q84.15-2.57 84.91-5.91 85.67-9.25 85.67-16.4L85.67-16.4 85.56-27.42Q85.56-29.41 85.78-29.85L85.78-29.85Q86.1-30.53 87.04-30.53L87.04-30.53Q88.6-30.53 88.6-28.26L88.6-28.26 88.6-25.22 88.56-23.81 88.56-22.44 91.27-22.44Q92.39-22.44 92.43-23.56L92.43-23.56 92.43-28.98Q92.43-30.46 93.76-30.46 95.1-30.46 95.1-28.98L95.1-28.98 95.1-22.8Q95.1-19.91 92.17-19.91L92.17-19.91 88.56-19.91 88.53-18.61 88.53-16.84 105.04-16.84 105.04-19.91 101.06-19.91Q98.14-19.91 98.14-22.8L98.14-22.8 98.14-28.98Q98.14-30.46 99.47-30.46 100.81-30.46 100.81-28.98L100.81-28.98 100.81-23.56Q100.85-22.44 101.97-22.44L101.97-22.44 105.04-22.44 105.04-28.83Q105.04-30.53 106.52-30.53 108-30.53 108-28.83L108-28.83 108 1.26Q108 2.96 106.52 2.96 105.04 2.96 105.04 1.26L105.04 1.26ZM77.87-20.78L77.87-20.78Q78.52-20.78 80.68-19.76 82.85-18.75 82.85-17.6L82.85-17.6Q82.85-15.86 81.23-15.86L81.23-15.86Q80.79-15.86 79.67-16.48L79.67-16.48 78.66-16.95Q76.2-18.03 76.2-19.11L76.2-19.11Q76.2-20.78 77.87-20.78ZM81.66-11.42L81.66-11.42Q83.29-11.42 83.29-9.97L83.29-9.97Q83.29-8.89 80.68-1.7L80.68-1.7Q79.28 2.24 78.01 2.24L78.01 2.24Q76.24 2.24 76.24 0.65L76.24 0.65Q76.24 0.11 76.6-0.65L76.6-0.65Q78.52-5.02 79.96-9.72L79.96-9.72Q80.43-11.42 81.66-11.42ZM79.71-30.24L79.71-30.24Q80.43-30.24 82.47-29.1 84.51-27.97 84.51-26.92L84.51-26.92Q84.51-25.18 82.85-25.18L82.85-25.18Q82.35-25.18 81.23-25.87L81.23-25.87 80.29-26.41Q78.01-27.64 78.01-28.58L78.01-28.58Q78.01-30.24 79.71-30.24Z" transform="translate(-1.4800000190734863, 31.06999969482422)"></path>
          </g>          <!---->          <!---->          <!---->          <!---->          <!---->          <!---->          <!----></g>
      </g>
      <g data-gra="path-slogan" fill-rule="" class="tp-slogan iconsvg-slogansvg" fill="#aecbc9" transform="translate(5,38.00333786010742)">
        <rect x="0" height="1" y="3.135000228881836" width="9.60439682006836"></rect>
        <rect height="1" y="3.135000228881836" width="9.60439682006836" x="80.5244026184082"></rect>
        <g transform="translate(12.60439682006836,0)">
          <g transform="scale(1)">
            <path d="M0.74-7.15L1.72-7.15L1.72-0.86L5.35-0.86L5.35 0L0.74 0L0.74-7.15ZM6.45-7.15L7.42-7.15L7.42 0L6.45 0L6.45-7.15ZM10.23-7.15L13.83-1.37L13.83-7.15L14.77-7.15L14.77 0L13.67 0L10.04-5.78L10-5.78L10 0L9.06 0L9.06-7.15L10.23-7.15ZM24.65-7.15L22.23-3.67L24.77 0L23.55 0L21.60-2.93L19.65 0L18.48 0L21.05-3.67L18.63-7.15L19.84-7.15L21.64-4.41L23.48-7.15L24.65-7.15ZM30.39-2.66L30.39-7.15L31.37-7.15L31.37-2.54Q31.25 0.04 28.44 0.12L28.44 0.12Q25.82 0.04 25.70-2.38L25.70-2.38L25.70-7.15L26.68-7.15L26.68-2.66Q26.72-0.70 28.48-0.66L28.48-0.66Q30.39-0.70 30.39-2.66L30.39-2.66ZM33.95-0.86L38.24-0.86L38.24 0L32.97 0L32.97-7.15L38.16-7.15L38.16-6.33L33.95-6.33L33.95-4.10L37.85-4.10L37.85-3.24L33.95-3.24L33.95-0.86ZM45.27-7.15L42.58-2.89L42.58 0L41.60 0L41.60-2.89L38.91-7.15L40.04-7.15L42.07-3.71L44.14-7.15L45.27-7.15ZM50.86-2.66L50.86-7.15L51.84-7.15L51.84-2.54Q51.72 0.04 48.91 0.12L48.91 0.12Q46.29 0.04 46.17-2.38L46.17-2.38L46.17-7.15L47.15-7.15L47.15-2.66Q47.19-0.70 48.95-0.66L48.95-0.66Q50.86-0.70 50.86-2.66L50.86-2.66ZM58.05 0L57.34-2.07L54.45-2.07L53.71 0L52.73 0L55.43-7.15L56.52-7.15L59.10 0L58.05 0ZM55.90-6.09L54.77-2.93L56.99-2.93L55.94-6.09L55.90-6.09ZM61.13-7.15L64.73-1.37L64.73-7.15L65.66-7.15L65.66 0L64.57 0L60.94-5.78L60.90-5.78L60.90 0L59.96 0L59.96-7.15L61.13-7.15Z" transform="translate(-0.7421875, 7.1484375)"></path>
          </g>
        </g>
      </g>
    </g>
  </g>
  <defs v-gra="od"></defs>
</svg>