<svg data-v-0dd9719b="" version="1.0"
  xmlns="http://www.w3.org/2000/svg"
  xmlns:xlink="http://www.w3.org/1999/xlink" width="100%" height="100%" viewBox="0 0 92.000000 92.000000" preserveAspectRatio="xMidYMid meet" color-interpolation-filters="sRGB" style="margin: auto;">
  <rect data-v-0dd9719b="" x="0" y="0" width="100%" height="100%" fill="#173f49" fill-opacity="1" rx="20" ry="20" class="background"></rect>
  <!-- 将以上rect转化为圆角 -->
  <svg viewBox="0 0 60 60" x="0" y="0" width="92" height="92" class="image-svg-svg bn" style="overflow: visible;">
    <g hollow-target="iconBnFill" mask="url(#49df32a9-aaa1-4f19-bb69-d6c174c96665)">
      <g>
        <svg xmlns="http://www.w3.org/2000/svg"
          xmlns:xlink="http://www.w3.org/1999/xlink" version="1.1" x="0" y="0" viewBox="5 5 90 90" enable-background="new 0 0 100 100" xml:space="preserve" style="overflow: visible;" width="60" height="60" filtersec="colorsf2798166748" filter="url(#cCGwasSeF0X_qUbgJERwV)">
          <g transform="scale(1, 1) skewX(0)">
            <path d="M75.921,5H24.305C13.752,5,5,13.752,5,24.305v51.616C5,86.472,13.752,95,24.305,95h51.616C86.472,95,95,86.472,95,75.921  V24.305C95,13.752,86.472,5,75.921,5z"></path>
          </g>
          <defs>
            <filter id="cCGwasSeF0X_qUbgJERwV">
              <feColorMatrix type="matrix" values="0 0 0 0 0.6796875  0 0 0 0 0.79296875  0 0 0 0 0.78515625  0 0 0 1 0"></feColorMatrix>
            </filter>
          </defs>
        </svg>
      </g>
      <g filter="url(#colors822380508)">
        <svg xmlns="http://www.w3.org/2000/svg"
          xmlns:xlink="http://www.w3.org/1999/xlink" viewBox="0 0 66.234375 66.234375" width="60" height="60" x="0" y="0" class="image-svg-letter">
          <path transform="translate(-2.8828125 60.46875)" d="M52.03-29.74L52.03-29.74L52.03 2.25Q52.03 5.55 49.08 5.55L49.08 5.55Q46.05 5.55 46.05 2.25L46.05 2.25L46.05-29.53Q43.03-19.97 38.18-12.69Q33.33-5.41 31.01-5.41L31.01-5.41Q28.13-5.41 28.13-8.58L28.13-8.58Q28.13-9.84 29.53-11.32L29.53-11.32Q34.80-16.73 39.13-25.07Q43.45-33.40 44.86-40.01L44.86-40.01L36.14-40.01Q32.55-40.01 32.55-42.82L32.55-42.82Q32.55-45.70 36.14-45.70L36.14-45.70L46.05-45.70L46.05-57.16Q46.05-60.47 49.01-60.47L49.01-60.47Q52.03-60.47 52.03-57.16L52.03-57.16L52.03-45.70L64.69-45.70Q68.13-45.70 68.13-42.82L68.13-42.82Q68.13-40.01 64.69-40.01L64.69-40.01L52.80-40.01Q56.60-24.40 67.43-13.29L67.43-13.29Q69.12-11.53 69.12-10.13L69.12-10.13Q69.12-6.40 66.09-6.40L66.09-6.40Q63.70-6.40 59.17-13.89Q54.63-21.38 52.03-29.74ZM15.40 2.53L15.40-28.69Q13.71-22.85 10.62-16.88Q7.52-10.90 5.63-10.90L5.63-10.90Q2.88-10.90 2.88-14.20L2.88-14.20Q2.88-15.26 4.01-16.80L4.01-16.80Q11.60-26.72 14.63-40.01L14.63-40.01L7.24-40.01Q3.73-40.01 3.73-42.82L3.73-42.82Q3.73-45.70 7.24-45.70L7.24-45.70L15.40-45.70L15.40-57.23Q15.40-60.47 18.35-60.47Q21.30-60.47 21.30-57.23L21.30-57.23L21.30-45.70L27.35-45.70Q30.87-45.70 30.87-42.82L30.87-42.82Q30.87-40.01 27.35-40.01L27.35-40.01L21.30-40.01L21.30-30.94Q22.01-31.78 23.06-31.78L23.06-31.78Q24.26-31.78 28.09-27.11Q31.92-22.43 31.92-21.09L31.92-21.09Q31.92-18.42 29.25-18.42L29.25-18.42Q27.84-18.42 26.72-20.32L26.72-20.32Q24.75-23.70 21.59-27.98L21.59-27.98L21.30-28.41L21.30 2.53Q21.30 5.77 18.35 5.77Q15.40 5.77 15.40 2.53L15.40 2.53Z"></path>
        </svg>
      </g>
    </g>
    <mask id="49df32a9-aaa1-4f19-bb69-d6c174c96665">
      <g fill="white">
        <svg xmlns="http://www.w3.org/2000/svg"
          xmlns:xlink="http://www.w3.org/1999/xlink" version="1.1" x="0" y="0" viewBox="5 5 90 90" enable-background="new 0 0 100 100" xml:space="preserve" style="overflow: visible;" width="60" height="60" filtersec="colorsf2798166748">
          <g transform="scale(1, 1) skewX(0)">
            <path d="M75.921,5H24.305C13.752,5,5,13.752,5,24.305v51.616C5,86.472,13.752,95,24.305,95h51.616C86.472,95,95,86.472,95,75.921  V24.305C95,13.752,86.472,5,75.921,5z"></path>
          </g>
          <defs></defs>
        </svg>
      </g>
      <g fill="black">
        <svg xmlns="http://www.w3.org/2000/svg"
          xmlns:xlink="http://www.w3.org/1999/xlink" viewBox="0 0 66.234375 66.234375" width="60" height="60" x="0" y="0" class="image-svg-letter">
          <path transform="translate(-2.8828125 60.46875)" d="M52.03-29.74L52.03-29.74L52.03 2.25Q52.03 5.55 49.08 5.55L49.08 5.55Q46.05 5.55 46.05 2.25L46.05 2.25L46.05-29.53Q43.03-19.97 38.18-12.69Q33.33-5.41 31.01-5.41L31.01-5.41Q28.13-5.41 28.13-8.58L28.13-8.58Q28.13-9.84 29.53-11.32L29.53-11.32Q34.80-16.73 39.13-25.07Q43.45-33.40 44.86-40.01L44.86-40.01L36.14-40.01Q32.55-40.01 32.55-42.82L32.55-42.82Q32.55-45.70 36.14-45.70L36.14-45.70L46.05-45.70L46.05-57.16Q46.05-60.47 49.01-60.47L49.01-60.47Q52.03-60.47 52.03-57.16L52.03-57.16L52.03-45.70L64.69-45.70Q68.13-45.70 68.13-42.82L68.13-42.82Q68.13-40.01 64.69-40.01L64.69-40.01L52.80-40.01Q56.60-24.40 67.43-13.29L67.43-13.29Q69.12-11.53 69.12-10.13L69.12-10.13Q69.12-6.40 66.09-6.40L66.09-6.40Q63.70-6.40 59.17-13.89Q54.63-21.38 52.03-29.74ZM15.40 2.53L15.40-28.69Q13.71-22.85 10.62-16.88Q7.52-10.90 5.63-10.90L5.63-10.90Q2.88-10.90 2.88-14.20L2.88-14.20Q2.88-15.26 4.01-16.80L4.01-16.80Q11.60-26.72 14.63-40.01L14.63-40.01L7.24-40.01Q3.73-40.01 3.73-42.82L3.73-42.82Q3.73-45.70 7.24-45.70L7.24-45.70L15.40-45.70L15.40-57.23Q15.40-60.47 18.35-60.47Q21.30-60.47 21.30-57.23L21.30-57.23L21.30-45.70L27.35-45.70Q30.87-45.70 30.87-42.82L30.87-42.82Q30.87-40.01 27.35-40.01L27.35-40.01L21.30-40.01L21.30-30.94Q22.01-31.78 23.06-31.78L23.06-31.78Q24.26-31.78 28.09-27.11Q31.92-22.43 31.92-21.09L31.92-21.09Q31.92-18.42 29.25-18.42L29.25-18.42Q27.84-18.42 26.72-20.32L26.72-20.32Q24.75-23.70 21.59-27.98L21.59-27.98L21.30-28.41L21.30 2.53Q21.30 5.77 18.35 5.77Q15.40 5.77 15.40 2.53L15.40 2.53Z"></path>
        </svg>
      </g>
    </mask>
  </svg>
</svg>